<svg width="1920" height="1080" viewBox="0 0 1920 1080" fill="none" xmlns="http://www.w3.org/2000/svg">
<rect width="1920" height="1080" fill="white"/>
<g clip-path="url(#clip0_204_11)">
<path d="M689.877 429.409C686.046 427.526 684.396 431.115 682.156 432.938C681.389 433.526 680.741 434.291 680.093 434.996C674.493 440.995 667.951 444.936 659.405 444.465C646.91 443.759 636.242 447.701 626.811 457.288C624.807 445.466 618.147 438.407 608.009 433.879C602.705 431.526 597.342 429.173 593.628 424.055C591.035 420.41 590.327 416.351 589.031 412.351C588.205 409.94 587.38 407.469 584.61 407.057C581.604 406.587 580.425 409.115 579.246 411.234C574.531 419.88 572.704 429.409 572.88 439.055C573.293 460.759 582.429 478.05 600.582 490.344C602.645 491.756 603.175 493.166 602.527 495.226C601.289 499.461 599.815 503.578 598.519 507.813C597.694 510.519 596.456 511.107 593.568 509.929C583.607 505.755 575.002 499.578 567.398 492.109C554.491 479.58 542.821 465.758 528.263 454.936C524.845 452.406 521.426 450.054 517.889 447.818C503.036 433.35 519.834 421.468 523.724 420.057C527.791 418.587 525.139 413.527 511.995 413.587C498.851 413.646 486.828 418.057 471.504 423.939C469.264 424.822 466.906 425.468 464.489 425.997C450.58 423.351 436.139 422.762 421.051 424.468C392.642 427.644 369.951 441.113 353.271 464.112C333.232 491.756 328.517 523.163 334.293 555.926C340.364 590.451 357.927 619.036 384.922 641.388C412.919 664.561 445.159 675.913 481.937 673.737C504.275 672.443 529.148 669.444 557.203 645.623C564.275 649.152 571.702 650.563 584.021 651.621C593.51 652.504 602.646 651.151 609.718 649.681C620.799 647.328 620.033 637.035 616.026 635.153C583.55 619.979 590.681 626.154 584.198 621.154C600.701 601.568 625.574 581.217 635.299 515.282C636.065 510.048 635.417 506.753 635.299 502.518C635.24 499.931 635.829 498.932 638.776 498.637C646.91 497.695 654.808 495.461 662.057 491.461C683.099 479.934 691.586 460.994 693.59 438.29C693.885 434.82 693.531 431.231 689.877 429.409ZM506.515 633.741C475.041 608.921 459.776 600.744 453.469 601.097C447.575 601.45 448.636 608.215 449.932 612.626C451.288 616.978 453.057 619.979 455.532 623.801C457.241 626.33 458.42 630.094 453.823 632.918C443.685 639.212 426.062 630.8 425.236 630.389C404.726 618.272 387.575 602.273 375.491 580.394C363.821 559.336 357.044 536.751 355.923 512.636C355.629 506.813 357.338 504.753 363.114 503.696C370.717 502.284 378.556 501.989 386.16 503.107C418.282 507.813 445.63 522.223 468.557 545.044C481.642 558.042 491.543 573.571 501.741 588.746C512.585 604.861 524.255 620.214 539.108 632.8C544.353 637.211 548.538 640.563 552.546 643.035C540.464 644.387 520.307 644.682 506.515 633.741ZM521.603 536.398C521.603 533.81 523.666 531.752 526.26 531.752C526.85 531.752 527.38 531.868 527.852 532.044C528.5 532.281 529.09 532.634 529.561 533.162C530.387 533.986 530.858 535.162 530.858 536.397C530.858 538.985 528.795 541.043 526.202 541.043C523.61 541.043 521.603 538.986 521.603 536.398ZM568.461 560.513C565.455 561.749 562.449 562.807 559.561 562.925C555.082 563.16 550.19 561.336 547.538 559.101C543.412 555.63 540.465 553.691 539.227 547.632C538.696 545.044 538.991 541.044 539.463 538.751C540.524 533.81 539.345 530.634 535.868 527.751C533.039 525.398 529.443 524.752 525.494 524.752C524.02 524.752 522.666 524.105 521.663 523.575C520.013 522.752 518.658 520.693 519.954 518.164C520.366 517.342 522.371 515.341 522.843 514.989C528.206 511.929 534.395 512.93 540.112 515.224C545.417 517.4 549.425 521.4 555.201 527.046C561.095 533.868 562.155 535.752 565.515 540.868C568.168 544.868 570.584 548.984 572.234 553.691C573.236 556.632 571.938 559.043 568.461 560.513Z" fill="#4D6BFE"/>
<path d="M1100.74 502.72C1092.4 502.72 1083.99 504.556 1078.54 509.725C1078.06 510.167 1077.62 510.643 1077.18 511.119H1073.18V502.72H1051.25V634.924H1073.18V552.773C1073.18 544.307 1075.01 535.806 1080.1 530.263C1085.18 524.687 1092.98 522.715 1100.74 522.715C1108.47 522.715 1116.3 524.687 1121.38 530.263C1126.46 535.806 1128.29 544.307 1128.29 552.773C1128.29 561.206 1126.46 569.707 1121.38 575.249C1116.3 580.825 1108.47 582.797 1100.74 582.797H1088.26V602.791H1100.74C1113.65 602.791 1126.63 599.493 1135.11 590.244C1143.58 580.995 1146.6 566.85 1146.6 552.772C1146.6 538.695 1143.58 524.516 1135.11 515.267C1126.63 506.018 1113.65 502.72 1100.74 502.72ZM794.392 556.241C794.392 564.708 792.562 573.208 787.477 578.751C782.393 584.294 774.597 586.3 766.835 586.3C759.073 586.3 751.277 584.293 746.193 578.751C741.109 573.208 739.278 564.708 739.278 556.241C739.278 547.808 741.109 539.274 746.193 533.731C751.277 528.188 759.073 526.216 766.835 526.216H779.308V506.222H766.835C753.921 506.222 740.939 509.521 732.465 518.77C723.991 528.018 720.974 542.163 720.974 556.241C720.974 570.319 723.991 584.498 732.465 593.746C740.939 602.995 753.921 606.293 766.835 606.293C775.173 606.293 783.545 604.423 789.036 599.289C789.511 598.847 789.951 598.371 790.358 597.894H794.392V606.293H816.322V474.056H794.392V556.241ZM878.723 502.72C865.301 502.72 851.81 506.155 842.997 515.71C834.218 525.265 831.066 539.92 831.066 554.507C831.066 569.061 834.218 583.75 842.997 593.304C851.81 602.859 865.3 606.294 878.723 606.294C892.146 606.294 905.636 602.859 914.449 593.304C918.957 588.374 922.008 582.118 923.906 575.181H902.213C901.603 576.099 900.925 576.983 900.18 577.799C894.892 583.546 886.791 585.586 878.724 585.586C870.691 585.586 862.59 583.546 857.302 577.799C852.015 572.053 850.116 563.246 850.116 554.508C850.116 545.769 852.015 536.962 857.302 531.216C862.59 525.469 870.691 523.429 878.724 523.429C886.791 523.429 894.893 525.469 900.18 531.216C903.841 535.194 905.874 540.601 906.789 546.483H868.013V562.533H926.415V554.508C926.415 539.921 923.262 525.265 914.45 515.71C905.671 506.155 892.146 502.72 878.723 502.72ZM988.815 502.72C975.426 502.72 961.902 506.155 953.123 515.71C944.31 525.265 941.158 539.92 941.158 554.507C941.158 569.061 944.311 583.75 953.123 593.304C961.902 602.859 975.426 606.294 988.815 606.294C1002.24 606.294 1015.73 602.859 1024.54 593.304C1029.08 588.374 1032.1 582.118 1034 575.181H1012.31C1011.7 576.099 1011.02 576.983 1010.27 577.799C1004.98 583.546 996.883 585.586 988.85 585.586C980.783 585.586 972.681 583.546 967.394 577.799C962.106 572.053 960.208 563.246 960.208 554.508C960.208 545.769 962.106 536.962 967.394 531.216C972.681 525.469 980.783 523.429 988.85 523.429C996.883 523.429 1004.98 525.469 1010.27 531.216C1013.93 535.194 1015.97 540.601 1016.88 546.483H978.105V562.533H1036.51V554.508C1036.51 539.921 1033.35 525.265 1024.54 515.71C1015.76 506.155 1002.24 502.72 988.815 502.72ZM1244.73 552.807C1235.95 547.162 1222.42 545.156 1209.03 545.156H1209.51C1203.78 545.156 1198.02 544.374 1194.26 542.164C1190.49 539.988 1189.17 536.621 1189.17 533.289C1189.17 529.958 1190.49 526.591 1194.26 524.415C1198.02 522.205 1203.78 521.423 1209.51 521.423C1215.24 521.423 1221 522.239 1224.73 524.415C1228.49 526.591 1229.85 529.958 1229.85 533.289H1252.18C1252.18 524.687 1249.3 516.05 1241.34 510.406C1233.37 504.761 1221.17 502.721 1209.03 502.721C1196.9 502.721 1184.7 504.761 1176.73 510.406C1168.77 516.05 1165.92 524.687 1165.92 533.289C1165.92 541.892 1168.77 550.563 1176.73 556.173C1184.7 561.818 1196.9 563.858 1209.03 563.858C1215.34 563.858 1222.25 564.64 1226.39 566.816C1230.56 569.026 1232.05 572.392 1232.05 575.725C1232.05 579.057 1230.56 582.423 1226.39 584.599C1222.25 586.775 1215.88 587.557 1209.54 587.557C1203.24 587.557 1196.87 586.775 1192.7 584.599C1188.56 582.389 1187.07 579.056 1187.07 575.725H1161.34C1161.34 584.293 1164.5 592.964 1173.31 598.608C1182.12 604.253 1195.61 606.259 1209.03 606.259C1222.42 606.259 1235.95 604.253 1244.73 598.608C1253.54 592.964 1256.69 584.293 1256.69 575.725C1256.69 567.122 1253.54 558.451 1244.73 552.807ZM1319.13 502.72C1305.7 502.72 1292.21 506.155 1283.4 515.71C1274.62 525.265 1271.43 539.92 1271.43 554.507C1271.43 569.061 1274.62 583.75 1283.4 593.304C1292.21 602.859 1305.7 606.294 1319.13 606.294C1332.55 606.294 1346.04 602.859 1354.85 593.304C1359.36 588.374 1362.41 582.118 1364.27 575.181H1342.61C1342 576.099 1341.33 576.983 1340.58 577.799C1335.29 583.546 1327.19 585.586 1319.12 585.586C1311.09 585.586 1302.96 583.546 1297.7 577.799C1292.41 572.053 1290.52 563.246 1290.52 554.508C1290.52 545.769 1292.42 536.962 1297.7 531.216C1302.96 525.469 1311.09 523.429 1319.12 523.429C1327.19 523.429 1335.29 525.469 1340.58 531.216C1344.24 535.194 1346.28 540.601 1347.19 546.483H1308.38V562.533H1366.82V554.508C1366.82 539.921 1363.66 525.265 1354.85 515.71C1346.04 506.155 1332.55 502.72 1319.13 502.72ZM1429.22 502.72C1415.79 502.72 1402.3 506.155 1393.49 515.71C1384.71 525.265 1381.53 539.92 1381.53 554.507C1381.53 569.061 1384.71 583.75 1393.49 593.304C1402.3 602.859 1415.79 606.294 1429.22 606.294C1442.64 606.294 1456.13 602.859 1464.94 593.304C1469.45 588.374 1472.5 582.118 1474.4 575.181H1452.71C1452.1 576.099 1451.42 576.983 1450.67 577.799C1445.39 583.546 1437.28 585.586 1429.22 585.586C1421.18 585.586 1413.05 583.546 1407.8 577.799C1402.51 572.053 1400.61 563.246 1400.61 554.508C1400.61 545.769 1402.51 536.962 1407.8 531.216C1413.05 525.469 1421.18 523.429 1429.22 523.429C1437.28 523.429 1445.39 525.469 1450.67 531.216C1454.33 535.194 1456.37 540.601 1457.28 546.483H1418.51V562.533H1476.91V554.508C1476.91 539.921 1473.76 525.265 1464.94 515.71C1456.13 506.155 1442.64 502.72 1429.22 502.72ZM1491.62 469.431H1513.55V606.294H1491.62V469.431ZM1559.82 507.311L1523.82 551.413L1559.82 606.294H1587L1551 551.413L1587 507.311H1559.82Z" fill="#4D6BFE"/>
</g>
<defs>
<clipPath id="clip0_204_11">
<rect width="1255" height="267" fill="white" transform="translate(332 407)"/>
</clipPath>
</defs>
</svg>
