<svg width="1920" height="1080" viewBox="0 0 1920 1080" fill="none" xmlns="http://www.w3.org/2000/svg">
<rect width="1920" height="1080" fill="white"/>
<g clip-path="url(#clip0_204_11)">
<path d="M631.971 437.801C617.768 431.101 600.879 427 584.841 427C536.431 427 507.474 467.047 510.589 506.193C512.001 523.899 520.7 541.03 535.084 554.426C540.236 559.251 545.993 563.385 552.212 566.726C547.507 561.123 544.399 554.358 543.214 547.14C539.997 527.466 552.995 498.528 586.192 498.528C621.894 498.528 661.2 532.453 664.524 574.168C666.556 599.686 656.878 622.659 640.514 638.708C674.358 619.061 697.115 582.438 697.115 540.5C697.115 495.123 670.474 455.965 631.971 437.801Z" fill="#0053D6"/>
<path d="M656.525 574.807C655.114 557.101 646.415 539.97 632.031 526.573C626.879 521.749 621.121 517.614 614.903 514.274C619.608 519.876 622.716 526.642 623.9 533.86C627.118 553.533 614.119 582.472 580.923 582.472C545.22 582.472 505.914 548.547 502.591 506.828C500.558 481.31 510.237 458.337 526.601 442.288C492.757 461.939 470 498.562 470 540.5C470 585.877 496.641 625.034 535.144 643.198C549.346 649.898 566.236 654 582.274 654C630.684 654 659.641 613.953 656.525 574.807Z" fill="#0053D6"/>
<path d="M790.156 483.75H753.98V597.25H790.156C830.06 597.25 848.392 575.526 848.392 540.666C848.392 505.637 830.06 483.75 790.156 483.75ZM789.668 583.63H770.041V497.207H789.668C821.138 497.207 832.009 513.744 832.009 540.659C832.009 567.411 821.138 583.63 789.668 583.63Z" fill="#0053D6"/>
<path d="M896.324 514.879C872.311 514.879 855.928 531.904 855.928 557.358C855.928 582.487 872.477 599.191 896.158 599.191C915.141 599.191 928.279 587.841 932.659 572.76H916.598C913.354 580.705 906.219 585.892 896.158 585.892C883.666 585.892 872.64 577.141 871.663 560.763H934.767C934.93 557.846 934.93 555.414 934.93 553.14C934.93 532.388 920.005 514.879 896.324 514.879ZM871.993 549.413C873.776 535.472 884.159 528.174 896.162 528.174C908.816 528.174 918.389 536.281 919.036 549.413H871.993Z" fill="#0053D6"/>
<path d="M983.756 514.879C959.746 514.879 943.364 531.904 943.364 557.358C943.364 582.487 959.909 599.191 983.593 599.191C1002.57 599.191 1015.71 587.841 1020.09 572.76H1004.03C1000.79 580.705 993.651 585.892 983.593 585.892C971.102 585.892 960.072 577.141 959.099 560.763H1022.2C1022.36 557.846 1022.36 555.414 1022.36 553.14C1022.36 532.388 1007.44 514.879 983.756 514.879ZM959.432 549.413C961.219 535.472 971.598 528.174 983.605 528.174C996.259 528.174 1005.83 536.281 1006.48 549.413H959.432Z" fill="#0053D6"/>
<path d="M1076.54 514.879C1062.1 514.879 1053.02 521.852 1047.99 529.634L1046.37 516.828H1031.93V632.911H1048.01V584.598C1053.52 593.837 1063.58 599.191 1076.4 599.191C1100.08 599.191 1116.3 581.515 1116.3 557.196C1116.3 532.876 1100.06 514.879 1076.54 514.879ZM1073.95 585.249C1058.86 585.249 1047.99 573.899 1047.99 557.037C1047.99 540.337 1058.86 528.824 1073.95 528.824C1089.19 528.824 1099.9 540.337 1099.9 557.037C1099.9 573.895 1089.19 585.245 1073.95 585.245V585.249Z" fill="#0053D6"/>
<path d="M1183.56 560.438L1144.3 483.75H1125.49V597.25H1141.55V511.8L1177.4 581.035H1189.73L1225.41 511.8V597.25H1241.47V483.75H1222.65L1183.56 560.438Z" fill="#0053D6"/>
<path d="M1270.02 516.828H1253.96V597.25H1270.02V516.828Z" fill="#0053D6"/>
<path d="M1261.91 480.504C1255.91 480.504 1251.37 484.722 1251.37 490.56C1251.37 496.398 1255.91 500.775 1261.91 500.775C1268.07 500.775 1272.62 496.398 1272.62 490.56C1272.62 484.722 1268.07 480.504 1261.91 480.504Z" fill="#0053D6"/>
<path d="M1325.66 514.879C1313.17 514.879 1303.11 521.042 1297.92 530.932L1296.78 516.828H1282.51V597.25H1298.59V555.735C1298.59 538.226 1308.16 528.658 1321.3 528.658C1334.28 528.658 1340.93 536.603 1340.93 552.493V597.25H1356.83V550.874C1356.81 526.717 1344.96 514.879 1325.66 514.879Z" fill="#0053D6"/>
<path d="M1433.94 480.152V529.12C1428.42 519.877 1418.37 514.527 1405.39 514.527C1381.71 514.527 1365.65 532.199 1365.65 556.522C1365.65 580.845 1381.71 598.839 1405.23 598.839C1419.67 598.839 1428.75 591.87 1433.94 584.084L1435.56 596.894H1450V480.152H1433.94ZM1407.82 584.894C1392.74 584.894 1381.87 573.381 1381.87 556.681C1381.87 539.819 1392.74 528.469 1407.82 528.469C1423.07 528.469 1433.78 539.819 1433.78 556.681C1433.78 573.381 1423.07 584.894 1407.82 584.894H1407.82Z" fill="#0053D6"/>
</g>
<defs>
<clipPath id="clip0_204_11">
<rect width="980" height="227" fill="white" transform="translate(470 427)"/>
</clipPath>
</defs>
</svg>
