<svg width="1920" height="1080" viewBox="0 0 1920 1080" fill="none" xmlns="http://www.w3.org/2000/svg">
<rect width="1920" height="1080" fill="white"/>
<path d="M1154.26 543.723C1154.26 527.417 1152.93 515.518 1150.07 503.179H963.874V576.776H1073.17C1070.96 595.065 1059.07 622.609 1032.62 641.118L1032.25 643.582L1091.12 689.189L1095.2 689.596C1132.66 655.001 1154.26 604.099 1154.26 543.723Z" fill="#4285F4"/>
<path d="M963.874 737.633C1017.42 737.633 1062.37 720.004 1095.2 689.596L1032.62 641.118C1015.88 652.796 993.4 660.949 963.874 660.949C911.43 660.949 866.92 626.355 851.053 578.539L848.727 578.737L787.511 626.112L786.71 628.338C819.322 693.121 886.309 737.633 963.874 737.633Z" fill="#34A853"/>
<path d="M851.053 578.539C846.866 566.2 844.443 552.977 844.443 539.316C844.443 525.654 846.866 512.433 850.833 500.094L850.722 497.466L788.739 449.329L786.711 450.293C773.27 477.177 765.557 507.365 765.557 539.316C765.557 571.267 773.27 601.454 786.711 628.338L851.053 578.539Z" fill="#FBBC05"/>
<path d="M963.874 417.682C1001.11 417.682 1026.23 433.767 1040.56 447.21L1096.52 392.562C1062.15 360.611 1017.42 341 963.874 341C886.309 341 819.322 385.511 786.71 450.294L850.833 500.094C866.92 452.277 911.43 417.682 963.874 417.682Z" fill="#EB4335"/>
</svg>
