<svg width="1920" height="1080" viewBox="0 0 1920 1080" fill="none" xmlns="http://www.w3.org/2000/svg">
<rect width="1920" height="1080" fill="white"/>
<g clip-path="url(#clip0_204_11)">
<mask id="mask0_204_11" style="mask-type:luminance" maskUnits="userSpaceOnUse" x="471" y="464" width="217" height="153">
<path d="M687.765 464H471V617H687.765V464Z" fill="white"/>
</mask>
<g mask="url(#mask0_204_11)">
<path d="M532.928 464H501.955V494.701H532.928V464Z" fill="#FFD800"/>
<path d="M656.805 464H625.832V494.701H656.805V464Z" fill="#FFD800"/>
<path d="M563.892 494.704H501.955V525.405H563.892V494.704Z" fill="#FFAF00"/>
<path d="M656.812 494.704H594.876V525.405H656.812V494.704Z" fill="#FFAF00"/>
<path d="M656.792 525.39H501.955V556.091H656.792V525.39Z" fill="#FF8205"/>
<path d="M532.928 556.094H501.955V586.794H532.928V556.094Z" fill="#FA500F"/>
<path d="M594.876 556.094H563.902V586.794H594.876V556.094Z" fill="#FA500F"/>
<path d="M656.805 556.094H625.832V586.794H656.805V556.094Z" fill="#FA500F"/>
<path d="M563.898 586.784H470.998V617.486H563.898V586.784Z" fill="#E10500"/>
<path d="M687.786 586.784H594.876V617.486H687.786V586.784Z" fill="#E10500"/>
</g>
<path d="M1431.32 601.774V481.239H1447.37V601.774H1431.32Z" fill="black"/>
<path d="M1302.31 601.774L1348.88 481.239H1366.16L1415.79 601.774H1397.51L1383.37 565.268H1332.67L1319.35 601.774H1302.31ZM1337.3 552.277H1378.4L1365.75 518.896C1361.89 508.755 1359.02 500.424 1357.15 493.901C1355.6 501.63 1353.43 509.303 1350.61 516.922L1337.3 552.277Z" fill="black"/>
<path d="M1237.96 601.774V481.239H1252.85V601.774H1237.96Z" fill="black"/>
<path d="M1201.32 591.001C1195.81 595.66 1190.49 598.949 1185.36 600.868C1180.29 602.786 1174.83 603.746 1168.98 603.746C1159.33 603.746 1151.92 601.415 1146.74 596.756C1141.55 592.043 1138.96 586.041 1138.96 578.75C1138.96 574.475 1139.93 570.583 1141.86 567.075C1143.84 563.512 1146.41 560.662 1149.55 558.524C1152.75 556.387 1156.33 554.77 1160.3 553.673C1163.22 552.906 1167.63 552.166 1173.53 551.453C1185.55 550.028 1194.4 548.329 1200.08 546.356C1200.14 544.328 1200.16 543.04 1200.16 542.492C1200.16 536.462 1198.76 532.214 1195.95 529.747C1192.14 526.404 1186.49 524.732 1178.99 524.732C1171.99 524.732 1166.81 525.965 1163.44 528.432C1160.13 530.844 1157.68 535.147 1156.08 541.34L1141.53 539.367C1142.85 533.173 1145.03 528.185 1148.06 524.403C1151.09 520.566 1155.48 517.634 1161.21 515.606C1166.94 513.523 1173.59 512.481 1181.14 512.481C1188.64 512.481 1194.73 513.358 1199.42 515.112C1204.11 516.866 1207.55 519.086 1209.76 521.772C1211.96 524.403 1213.51 527.747 1214.39 531.803C1214.88 534.324 1215.13 538.874 1215.13 545.451V565.184C1215.13 578.943 1215.44 587.658 1216.04 591.33C1216.71 594.948 1217.97 598.428 1219.85 601.772H1204.3C1202.75 598.702 1201.76 595.112 1201.32 591.001ZM1200.08 557.949C1194.68 560.141 1186.57 562.005 1175.77 563.54C1169.65 564.417 1165.32 565.403 1162.78 566.5C1160.24 567.596 1158.29 569.213 1156.91 571.351C1155.53 573.434 1154.84 575.763 1154.84 578.34C1154.84 582.286 1156.33 585.575 1159.31 588.205C1162.34 590.837 1166.75 592.153 1172.54 592.153C1178.27 592.153 1183.37 590.919 1187.84 588.452C1192.31 585.931 1195.59 582.505 1197.68 578.175C1199.28 574.831 1200.08 569.898 1200.08 563.375V557.949Z" fill="black"/>
<path d="M1087.45 601.772V514.455H1100.84V527.692C1104.26 521.498 1107.41 517.414 1110.27 515.441C1113.19 513.468 1116.39 512.481 1119.87 512.481C1124.88 512.481 1129.98 514.071 1135.17 517.25L1130.04 530.981C1126.4 528.843 1122.76 527.774 1119.12 527.774C1115.87 527.774 1112.95 528.761 1110.36 530.734C1107.76 532.652 1105.92 535.338 1104.81 538.792C1103.16 544.054 1102.33 549.809 1102.33 556.058V601.772H1087.45Z" fill="black"/>
<path d="M1072.96 588.538L1075.11 601.611C1070.92 602.488 1067.17 602.926 1063.87 602.926C1058.46 602.926 1054.27 602.076 1051.29 600.377C1048.32 598.677 1046.22 596.458 1045.01 593.717C1043.8 590.922 1043.19 585.084 1043.19 576.204V525.968H1032.27V514.457H1043.19V492.834L1057.99 483.954V514.457H1072.96V525.968H1057.99V577.027C1057.99 581.247 1058.24 583.96 1058.74 585.166C1059.29 586.373 1060.14 587.332 1061.3 588.045C1062.51 588.756 1064.22 589.113 1066.43 589.113C1068.08 589.113 1070.26 588.921 1072.96 588.538Z" fill="black"/>
<path d="M949.818 575.708L964.539 573.406C965.367 579.271 967.655 583.766 971.404 586.891C975.208 590.014 980.502 591.577 987.284 591.577C994.12 591.577 999.192 590.207 1002.5 587.465C1005.81 584.67 1007.46 581.409 1007.46 577.681C1007.46 574.338 1006 571.707 1003.08 569.788C1001.04 568.473 995.967 566.801 987.862 564.773C976.945 562.032 969.364 559.675 965.118 557.702C960.927 555.674 957.73 552.906 955.525 549.398C953.374 545.835 952.299 541.916 952.299 537.641C952.299 533.749 953.181 530.158 954.946 526.87C956.765 523.526 959.219 520.758 962.306 518.566C964.622 516.866 967.765 515.441 971.735 514.29C975.759 513.084 980.06 512.481 984.636 512.481C991.529 512.481 997.567 513.468 1002.75 515.441C1007.99 517.414 1011.85 520.1 1014.33 523.499C1016.81 526.842 1018.52 531.337 1019.46 536.983L1004.9 538.956C1004.24 534.461 1002.31 530.953 999.11 528.432C995.967 525.911 991.501 524.65 985.712 524.65C978.875 524.65 973.996 525.774 971.072 528.021C968.151 530.268 966.689 532.899 966.689 535.914C966.689 537.832 967.296 539.559 968.509 541.094C969.722 542.683 971.624 543.999 974.216 545.04C975.704 545.588 980.088 546.849 987.366 548.822C997.897 551.618 1005.23 553.92 1009.37 555.729C1013.56 557.483 1016.84 560.059 1019.21 563.458C1021.58 566.856 1022.76 571.077 1022.76 576.119C1022.76 581.053 1021.3 585.712 1018.38 590.097C1015.51 594.427 1011.35 597.798 1005.89 600.21C1000.43 602.567 994.258 603.746 987.366 603.746C975.953 603.746 967.241 601.388 961.231 596.675C955.276 591.96 951.472 584.972 949.818 575.708Z" fill="black"/>
<path d="M918.149 498.259V481.239H933.037V498.259H918.149ZM918.149 601.774V514.456H933.037V601.774H918.149Z" fill="black"/>
<path d="M778.37 601.774V481.239H802.52L831.219 566.583C833.865 574.531 835.795 580.478 837.008 584.425C838.386 580.04 840.536 573.599 843.459 565.103L872.489 481.239H894.074V601.774H878.608V500.89L843.376 601.774H828.902L793.835 499.163V601.774H778.37Z" fill="black"/>
</g>
<defs>
<clipPath id="clip0_204_11">
<rect width="977" height="153" fill="white" transform="translate(471 464)"/>
</clipPath>
</defs>
</svg>
