<svg width="1920" height="1080" viewBox="0 0 1920 1080" fill="none" xmlns="http://www.w3.org/2000/svg">
<rect width="1920" height="1080" fill="white"/>
<mask id="mask0_204_11" style="mask-type:luminance" maskUnits="userSpaceOnUse" x="633" y="214" width="653" height="653">
<path d="M1285.64 214.091H633.55V866.185H1285.64V214.091Z" fill="white"/>
</mask>
<g mask="url(#mask0_204_11)">
<mask id="mask1_204_11" style="mask-type:luminance" maskUnits="userSpaceOnUse" x="740" y="322" width="439" height="436">
<path d="M1178.85 322.644H740.375V757.209H1178.85V322.644Z" fill="white"/>
</mask>
<g mask="url(#mask1_204_11)">
<path d="M908.552 480.825V439.541C908.552 436.064 909.857 433.456 912.897 431.72L995.901 383.918C1007.2 377.399 1020.67 374.359 1034.58 374.359C1086.72 374.359 1119.75 414.774 1119.75 457.794C1119.75 460.836 1119.75 464.313 1119.32 467.79L1033.27 417.379C1028.06 414.339 1022.84 414.339 1017.63 417.379L908.552 480.825ZM1102.37 641.615V542.967C1102.37 536.882 1099.76 532.536 1094.55 529.495L985.47 466.049L1021.1 445.623C1024.15 443.887 1026.75 443.887 1029.79 445.623L1112.8 493.425C1136.7 507.333 1152.78 536.882 1152.78 565.561C1152.78 598.587 1133.22 629.008 1102.37 641.612V641.615ZM882.912 554.703L847.278 533.845C844.238 532.109 842.933 529.499 842.933 526.023V430.419C842.933 383.922 878.567 348.72 926.805 348.72C945.059 348.72 962.003 354.805 976.348 365.669L890.738 415.211C885.525 418.251 882.917 422.597 882.917 428.683V554.707L882.912 554.703ZM959.614 599.027L908.552 570.347V509.51L959.614 480.83L1010.67 509.51V570.347L959.614 599.027ZM992.424 731.137C974.17 731.137 957.226 725.052 942.882 714.189L1028.49 664.646C1033.7 661.606 1036.31 657.26 1036.31 651.174V525.15L1072.38 546.008C1075.42 547.745 1076.73 550.353 1076.73 553.831V649.434C1076.73 695.931 1040.66 731.133 992.424 731.133V731.137ZM889.431 634.229L806.426 586.428C782.523 572.52 766.447 542.972 766.447 514.291C766.447 480.83 786.437 450.845 817.289 438.242V537.322C817.289 543.407 819.898 547.753 825.112 550.794L933.755 613.803L898.121 634.229C895.08 635.966 892.471 635.966 889.431 634.229ZM884.653 705.498C835.547 705.498 799.477 668.559 799.477 622.93C799.477 619.453 799.913 615.976 800.345 612.499L885.954 662.041C891.167 665.083 896.385 665.083 901.598 662.041L1010.67 599.032V640.316C1010.67 643.793 1009.37 646.401 1006.33 648.137L923.324 695.939C912.025 702.458 898.553 705.498 884.649 705.498H884.653ZM992.424 757.209C1045.01 757.209 1088.9 719.838 1098.89 670.296C1147.56 657.692 1178.85 612.063 1178.85 565.566C1178.85 535.145 1165.82 505.597 1142.35 484.302C1144.52 475.175 1145.83 466.049 1145.83 456.927C1145.83 394.785 1095.42 348.283 1037.18 348.283C1025.45 348.283 1014.15 350.02 1002.86 353.933C983.297 334.811 956.354 322.644 926.805 322.644C874.222 322.644 830.334 360.015 820.335 409.557C771.664 422.16 740.375 467.79 740.375 514.287C740.375 544.708 753.411 574.256 776.878 595.55C774.706 604.677 773.401 613.803 773.401 622.926C773.401 685.068 823.812 731.569 882.044 731.569C893.775 731.569 905.075 729.833 916.374 725.919C935.928 745.041 962.871 757.209 992.424 757.209Z" fill="black"/>
</g>
</g>
</svg>
