<svg width="1920" height="1080" viewBox="0 0 1920 1080" fill="none" xmlns="http://www.w3.org/2000/svg">
<rect width="1920" height="1080" fill="white"/>
<path d="M1288.46 578.413L1203.12 430.25L1248.16 354.523C1251.76 348.201 1251.76 340.387 1248.16 334.065L1203.12 258.338C1200.84 254.255 1196.49 251.709 1191.7 251.709H1025.32L986.955 184.542C984.672 180.459 980.326 177.913 975.541 177.913H886.687C881.902 177.913 877.556 180.459 875.273 184.542L789.931 332.66H701.078C696.293 332.66 691.947 335.207 689.664 339.289L644.622 415.017C641.023 421.338 641.023 429.153 644.622 435.474L720.833 572.925L682.464 640.092C678.864 646.414 678.864 654.228 682.464 660.549L727.506 736.277C729.788 740.36 734.135 742.906 738.92 742.906H905.301L943.669 810.073C945.952 814.156 950.298 816.702 955.083 816.702H1043.94C1048.72 816.702 1053.07 814.156 1055.35 810.073L1140.69 661.954H1216.9C1221.69 661.954 1226.03 659.408 1228.32 655.325L1273.36 579.598C1276.96 573.276 1276.96 565.462 1273.36 559.14L1288.46 578.413Z" fill="url(#paint0_radial_204_11)"/>
<path d="M1043.94 816.702H955.083L905.301 736.277H738.92L789.931 655.852H875.273L689.664 343.723H789.931L886.687 184.542L931.728 264.967L886.687 343.723H1230.34L1185.29 419.451L1270.64 567.569H1185.29L1140.69 488.813L965.18 816.702H1043.94Z" fill="white"/>
<path d="M1082.31 451.454H855.255L965.18 637.063L1082.31 451.454Z" fill="url(#paint1_radial_204_11)"/>
<defs>
<radialGradient id="paint0_radial_204_11" cx="0" cy="0" r="1" gradientUnits="userSpaceOnUse" gradientTransform="translate(960 540) rotate(90) scale(439 439)">
<stop stop-color="#665CEE"/>
<stop offset="1" stop-color="#332E91"/>
</radialGradient>
<radialGradient id="paint1_radial_204_11" cx="0" cy="0" r="1" gradientUnits="userSpaceOnUse" gradientTransform="translate(960 540) rotate(90) scale(439 439)">
<stop stop-color="#665CEE"/>
<stop offset="1" stop-color="#332E91"/>
</radialGradient>
</defs>
</svg>
